<svg width="101" height="16" viewBox="0 0 101 16" fill="none" xmlns="http://www.w3.org/2000/svg">
<path fill-rule="evenodd" clip-rule="evenodd" d="M2.08454 0L8.63102 13.3942L7.80769 15.0609L0.176819 0H2.08454ZM23.3104 0L15.7398 15.0609L7.76753 0H9.615L15.7398 11.7877C16.0477 11.1852 16.3958 10.4925 16.784 9.70928C17.1722 8.92611 17.5638 8.11952 17.9588 7.28949C18.3537 6.45946 18.7453 5.63948 19.1335 4.82954C19.5217 4.01959 19.8732 3.27994 20.1878 2.61056C20.5024 1.94118 20.7668 1.37222 20.981 0.903656C21.1952 0.435091 21.3357 0.133876 21.4027 0H23.3104ZM37.7574 1.46593V0H28.0381V15.081H37.7574V13.6151H29.5241V8.29355H36.3919V6.82762H29.5241V1.46593H37.7574ZM42.0835 15.081V0H43.5695V13.6151H51.8028V15.081H42.0835ZM56.1289 0V15.081H63.338C63.4451 15.081 63.6828 15.0442 64.0509 14.9706C64.4191 14.8969 64.8174 14.7329 65.2458 14.4786C65.4466 14.3581 65.6574 14.2008 65.8783 14.0067C66.0992 13.8125 66.2967 13.5749 66.4707 13.2938C66.6448 13.0126 66.7887 12.6813 66.9025 12.2998C67.0163 11.9182 67.0732 11.4731 67.0732 10.9644C67.0732 10.3887 66.9995 9.88666 66.8523 9.45826C66.705 9.02986 66.5176 8.66171 66.29 8.3538C66.0624 8.04588 65.8047 7.79821 65.5169 7.61079C65.229 7.42336 64.9379 7.2761 64.6433 7.169C64.9379 6.87448 65.1922 6.46951 65.4064 5.95409C65.6206 5.43867 65.7277 4.8195 65.7277 4.09657C65.7277 3.56107 65.6708 3.09921 65.557 2.71097C65.4432 2.32273 65.2993 1.98804 65.1253 1.70691C64.9512 1.42577 64.7571 1.19149 64.5429 1.00406C64.3287 0.816636 64.1212 0.662681 63.9204 0.542193C63.6928 0.408318 63.4753 0.304566 63.2678 0.230934C63.0603 0.157303 62.8728 0.103753 62.7055 0.0702843C62.5381 0.0368154 62.4009 0.0167344 62.2938 0.0100406C62.1867 0.00334684 62.1265 0 62.1131 0H56.1289ZM63.2979 13.6151C63.3514 13.6151 63.4987 13.5917 63.7397 13.5448C63.9806 13.4979 64.2384 13.3875 64.5128 13.2135C64.7872 13.0394 65.0316 12.775 65.2458 12.4202C65.46 12.0655 65.5671 11.5802 65.5671 10.9644C65.5671 10.3485 65.46 9.86324 65.2458 9.50847C65.0316 9.1537 64.7872 8.88595 64.5128 8.70522C64.2384 8.52448 63.9773 8.41069 63.7296 8.36384C63.482 8.31698 63.3314 8.29355 63.2778 8.29355H57.6149V13.6151H63.2979ZM62.5448 6.7473C62.3106 6.80085 62.1666 6.82762 62.1131 6.82762H57.6149V1.46593H62.1131C62.1399 1.46593 62.267 1.48601 62.4946 1.52617C62.7222 1.56634 62.9699 1.67009 63.2376 1.83743C63.5054 2.00478 63.7497 2.26583 63.9706 2.6206C64.1915 2.97537 64.3019 3.46736 64.3019 4.09657C64.3019 4.7124 64.1982 5.20104 63.9907 5.5625C63.7832 5.92397 63.5489 6.19841 63.2878 6.38583C63.0268 6.57326 62.7791 6.69375 62.5448 6.7473ZM81.8816 0V1.46593H73.6483V6.82762H80.5161V8.29355H73.6483V13.6151H81.8816V15.081H72.1623V0H81.8816ZM93.0152 8.65501L98.0356 15.081H100.004L94.1599 7.53046L100.004 0H98.0356L93.0152 6.426L88.2761 0H86.0471L91.8907 7.53046L86.0471 15.081H88.2761L93.0152 8.65501Z" fill="white"/>
<path fill-rule="evenodd" clip-rule="evenodd" d="M2.08454 0L8.63102 13.3942L7.80769 15.0609L0.176819 0H2.08454ZM23.3104 0L15.7398 15.0609L7.76753 0H9.615L15.7398 11.7877C16.0477 11.1852 16.3958 10.4925 16.784 9.70928C17.1722 8.92611 17.5638 8.11952 17.9588 7.28949C18.3537 6.45946 18.7453 5.63948 19.1335 4.82954C19.5217 4.01959 19.8732 3.27994 20.1878 2.61056C20.5024 1.94118 20.7668 1.37222 20.981 0.903656C21.1952 0.435091 21.3357 0.133876 21.4027 0H23.3104ZM37.7574 1.46593V0H28.0381V15.081H37.7574V13.6151H29.5241V8.29355H36.3919V6.82762H29.5241V1.46593H37.7574ZM42.0835 15.081V0H43.5695V13.6151H51.8028V15.081H42.0835ZM56.1289 0V15.081H63.338C63.4451 15.081 63.6828 15.0442 64.0509 14.9706C64.4191 14.8969 64.8174 14.7329 65.2458 14.4786C65.4466 14.3581 65.6574 14.2008 65.8783 14.0067C66.0992 13.8125 66.2967 13.5749 66.4707 13.2938C66.6448 13.0126 66.7887 12.6813 66.9025 12.2998C67.0163 11.9182 67.0732 11.4731 67.0732 10.9644C67.0732 10.3887 66.9995 9.88666 66.8523 9.45826C66.705 9.02986 66.5176 8.66171 66.29 8.3538C66.0624 8.04588 65.8047 7.79821 65.5169 7.61079C65.229 7.42336 64.9379 7.2761 64.6433 7.169C64.9379 6.87448 65.1922 6.46951 65.4064 5.95409C65.6206 5.43867 65.7277 4.8195 65.7277 4.09657C65.7277 3.56107 65.6708 3.09921 65.557 2.71097C65.4432 2.32273 65.2993 1.98804 65.1253 1.70691C64.9512 1.42577 64.7571 1.19149 64.5429 1.00406C64.3287 0.816636 64.1212 0.662681 63.9204 0.542193C63.6928 0.408318 63.4753 0.304566 63.2678 0.230934C63.0603 0.157303 62.8728 0.103753 62.7055 0.0702843C62.5381 0.0368154 62.4009 0.0167344 62.2938 0.0100406C62.1867 0.00334684 62.1265 0 62.1131 0H56.1289ZM63.2979 13.6151C63.3514 13.6151 63.4987 13.5917 63.7397 13.5448C63.9806 13.4979 64.2384 13.3875 64.5128 13.2135C64.7872 13.0394 65.0316 12.775 65.2458 12.4202C65.46 12.0655 65.5671 11.5802 65.5671 10.9644C65.5671 10.3485 65.46 9.86324 65.2458 9.50847C65.0316 9.1537 64.7872 8.88595 64.5128 8.70522C64.2384 8.52448 63.9773 8.41069 63.7296 8.36384C63.482 8.31698 63.3314 8.29355 63.2778 8.29355H57.6149V13.6151H63.2979ZM62.5448 6.7473C62.3106 6.80085 62.1666 6.82762 62.1131 6.82762H57.6149V1.46593H62.1131C62.1399 1.46593 62.267 1.48601 62.4946 1.52617C62.7222 1.56634 62.9699 1.67009 63.2376 1.83743C63.5054 2.00478 63.7497 2.26583 63.9706 2.6206C64.1915 2.97537 64.3019 3.46736 64.3019 4.09657C64.3019 4.7124 64.1982 5.20104 63.9907 5.5625C63.7832 5.92397 63.5489 6.19841 63.2878 6.38583C63.0268 6.57326 62.7791 6.69375 62.5448 6.7473ZM81.8816 0V1.46593H73.6483V6.82762H80.5161V8.29355H73.6483V13.6151H81.8816V15.081H72.1623V0H81.8816ZM93.0152 8.65501L98.0356 15.081H100.004L94.1599 7.53046L100.004 0H98.0356L93.0152 6.426L88.2761 0H86.0471L91.8907 7.53046L86.0471 15.081H88.2761L93.0152 8.65501Z" fill="#DADADA"/>
</svg>
